<svg xmlns="http://www.w3.org/2000/svg" viewBox="0 0 420 544" role="img" aria-labelledby="title desc">
  <title id="title">Escudo Torre Fuerte School</title>
  <desc id="desc">Escudo institucional de Torre Fuerte School</desc>
  <defs>
    <style>
      .navy { fill: #1a2346; }
      .gold { fill: #c8ab4c; }
      .stroke-navy { stroke: #1a2346; stroke-width: 10; }
      .tagline { font-family: Arial, Helvetica, sans-serif; font-weight: 700; letter-spacing: 1px; }
      .wordmark { font-family: Georgia, 'Times New Roman', serif; font-weight: 700; letter-spacing: 2px; }
    </style>
  </defs>

  <g transform="translate(20 10)">
    <g transform="translate(90 0)">
      <rect x="0" y="0" width="200" height="58" class="gold stroke-navy" />
      <text x="100" y="40" text-anchor="middle" class="navy wordmark" font-size="34">TFS</text>
    </g>

    <path d="M190 78 L330 78 L330 304 C330 377 272 434 190 462 C108 434 50 377 50 304 L50 78 Z" class="gold"/>
    <path d="M190 78 L330 78 L330 304 C330 377 272 434 190 462 Z" class="navy"/>
    <path d="M190 78 L330 78 L330 304 C330 377 272 434 190 462 C108 434 50 377 50 304 L50 78 Z" fill="none" class="stroke-navy"/>
    <rect x="190" y="78" width="140" height="114" fill="none" class="stroke-navy"/>
    <line x1="190" y1="192" x2="330" y2="192" class="stroke-navy"/>

    <g transform="translate(80 106)">
      <rect x="0" y="0" width="14" height="234" rx="4" class="navy"/>
      <rect x="20" y="0" width="14" height="234" rx="4" class="navy"/>
      <rect x="40" y="0" width="14" height="234" rx="4" class="navy"/>
      <rect x="60" y="0" width="14" height="234" rx="4" class="navy"/>
      <rect x="-8" y="-10" width="90" height="16" rx="5" class="navy"/>
    </g>

    <g transform="translate(246 120)" fill="#e4c16d">
      <circle cx="0" cy="12" r="10"/>
      <circle cx="20" cy="2" r="8"/>
      <circle cx="40" cy="12" r="10"/>
      <path d="M-8 34c0-12 8-18 16-18s16 6 16 18v18c0 4-3 7-7 7h-2c-4 0-7-3-7-7V34Z"/>
      <path d="M10 26c0-10 6-15 10-15s10 5 10 15v22c0 4-3 7-7 7h-6c-4 0-7-3-7-7V26Z"/>
      <path d="M24 34c0-12 8-18 16-18s16 6 16 18v18c0 4-3 7-7 7h-2c-4 0-7-3-7-7V34Z"/>
    </g>

    <g transform="translate(252 246)" fill="#e4c16d">
      <rect x="16" y="-8" width="6" height="40" rx="3"/>
      <rect x="0" y="6" width="38" height="6" rx="3"/>
      <path d="M0 44c14-20 26-20 38 0c-6-4-12-6-19-6s-13 2-19 6Z"/>
      <path d="M2 44c2-18 12-28 17-32c6 4 16 14 18 32c-5-4-12-7-18-7s-12 2-17 7Z"/>
      <path d="M18 18c-9 3-20 13-24 24h48c-4-11-15-21-24-24Z"/>
    </g>

    <g transform="translate(190 492)">
      <ellipse cx="0" cy="0" rx="42" ry="26" class="gold stroke-navy"/>
      <text x="0" y="10" text-anchor="middle" class="navy tagline" font-size="20">2024</text>
    </g>

    <g fill="#1a2346">
      <g transform="translate(64 372) rotate(-28)">
        <ellipse cx="0" cy="0" rx="11" ry="24"/>
        <ellipse cx="24" cy="16" rx="11" ry="24"/>
        <ellipse cx="48" cy="34" rx="11" ry="24"/>
        <ellipse cx="72" cy="54" rx="11" ry="24"/>
        <ellipse cx="96" cy="74" rx="11" ry="24"/>
        <ellipse cx="120" cy="96" rx="11" ry="24"/>
        <ellipse cx="144" cy="118" rx="11" ry="24"/>
        <ellipse cx="168" cy="138" rx="11" ry="24"/>
      </g>
      <g transform="translate(316 372) scale(-1,1) rotate(-28)">
        <ellipse cx="0" cy="0" rx="11" ry="24"/>
        <ellipse cx="24" cy="16" rx="11" ry="24"/>
        <ellipse cx="48" cy="34" rx="11" ry="24"/>
        <ellipse cx="72" cy="54" rx="11" ry="24"/>
        <ellipse cx="96" cy="74" rx="11" ry="24"/>
        <ellipse cx="120" cy="96" rx="11" ry="24"/>
        <ellipse cx="144" cy="118" rx="11" ry="24"/>
        <ellipse cx="168" cy="138" rx="11" ry="24"/>
      </g>
    </g>
  </g>
</svg>
